<?xml version="1.0" encoding="UTF-8"?>
<svg xmlns="http://www.w3.org/2000/svg" xmlns:xlink="http://www.w3.org/1999/xlink" width="110px" height="110px" viewBox="0 0 110 110" version="1.1">
<g id="surface1">
<path style="fill-rule:nonzero;fill:rgb(11.372549%,12.941177%,14.901961%);fill-opacity:1;stroke-width:55;stroke-linecap:butt;stroke-linejoin:miter;stroke:rgb(25.882354%,52.156866%,95.686275%);stroke-opacity:1;stroke-miterlimit:4;" d="M 127 58.509091 L 385 58.509091 C 422.836364 58.509091 453.490909 89.163636 453.490909 127 L 453.490909 385 C 453.490909 422.836364 422.836364 453.490909 385 453.490909 L 127 453.490909 C 89.163636 453.490909 58.509091 422.836364 58.509091 385 L 58.509091 127 C 58.509091 89.163636 89.163636 58.509091 127 58.509091 Z M 127 58.509091 " transform="matrix(0.214844,0,0,0.214844,0,0)"/>
<path style=" stroke:none;fill-rule:nonzero;fill:rgb(100%,100%,100%);fill-opacity:1;" d="M 32.691406 15.46875 C 32.113281 15.46875 31.824219 15.46875 31.824219 15.46875 C 31.824219 15.46875 31.921875 15.214844 32.117188 14.707031 L 33.789062 10.359375 C 33.898438 10.074219 33.949219 9.929688 33.949219 9.929688 C 33.949219 9.929688 34.140625 9.929688 34.523438 9.929688 C 34.890625 9.929688 35.074219 9.929688 35.074219 9.929688 C 35.074219 9.929688 35.132812 10.074219 35.242188 10.355469 L 36.902344 14.699219 C 37.101562 15.210938 37.199219 15.46875 37.199219 15.46875 C 37.199219 15.46875 36.917969 15.46875 36.351562 15.46875 C 36.015625 15.46875 35.847656 15.46875 35.847656 15.46875 C 35.847656 15.46875 35.8125 15.351562 35.734375 15.113281 L 34.691406 12.113281 L 34.507812 11.492188 L 34.484375 11.492188 L 34.296875 12.109375 L 33.25 15.105469 C 33.175781 15.347656 33.136719 15.46875 33.136719 15.46875 C 33.136719 15.46875 32.988281 15.46875 32.691406 15.46875 Z M 32.859375 14.394531 L 33.1875 13.507812 L 35.726562 13.507812 L 36.066406 14.394531 Z M 40.097656 15.46875 C 39.695312 15.46875 39.492188 15.46875 39.492188 15.46875 C 39.492188 15.46875 39.492188 15.285156 39.492188 14.917969 L 39.492188 10.652344 C 39.492188 10.171875 39.492188 9.929688 39.492188 9.929688 C 39.492188 9.929688 39.761719 9.929688 40.292969 9.929688 C 40.605469 9.929688 40.761719 9.929688 40.761719 9.929688 C 40.761719 9.929688 40.824219 10.03125 40.949219 10.230469 L 42.925781 13.332031 L 42.949219 13.332031 L 42.925781 12.472656 L 42.925781 10.464844 C 42.925781 10.109375 42.925781 9.929688 42.925781 9.929688 C 42.925781 9.929688 43.128906 9.929688 43.527344 9.929688 C 43.929688 9.929688 44.128906 9.929688 44.128906 9.929688 C 44.128906 9.929688 44.128906 10.109375 44.128906 10.464844 L 44.128906 14.828125 C 44.128906 15.253906 44.128906 15.46875 44.128906 15.46875 C 44.128906 15.46875 43.894531 15.46875 43.421875 15.46875 C 43.148438 15.46875 43.011719 15.46875 43.011719 15.46875 C 43.011719 15.46875 42.957031 15.382812 42.847656 15.214844 L 40.695312 11.929688 L 40.667969 11.929688 L 40.695312 12.785156 L 40.695312 14.917969 C 40.695312 15.285156 40.695312 15.46875 40.695312 15.46875 C 40.695312 15.46875 40.496094 15.46875 40.097656 15.46875 Z M 47.628906 15.46875 C 47.171875 15.46875 46.941406 15.46875 46.941406 15.46875 C 46.941406 15.46875 46.941406 15.238281 46.941406 14.78125 L 46.941406 10.617188 C 46.941406 10.160156 46.941406 9.929688 46.941406 9.929688 C 46.941406 9.929688 47.171875 9.929688 47.628906 9.929688 L 48.914062 9.929688 C 49.761719 9.929688 50.441406 10.183594 50.960938 10.691406 C 51.480469 11.199219 51.738281 11.867188 51.738281 12.695312 C 51.738281 13.53125 51.480469 14.203125 50.960938 14.710938 C 50.441406 15.214844 49.761719 15.46875 48.914062 15.46875 Z M 48.1875 14.363281 L 48.84375 14.363281 C 49.34375 14.367188 49.742188 14.226562 50.03125 13.933594 C 50.328125 13.640625 50.472656 13.230469 50.472656 12.707031 C 50.472656 12.1875 50.328125 11.789062 50.035156 11.5 C 49.746094 11.214844 49.347656 11.070312 48.84375 11.070312 L 48.1875 11.070312 Z M 54.871094 15.46875 C 54.457031 15.46875 54.25 15.46875 54.25 15.46875 C 54.25 15.46875 54.25 15.28125 54.25 14.90625 L 54.25 10.617188 C 54.25 10.160156 54.25 9.929688 54.25 9.929688 C 54.25 9.929688 54.476562 9.929688 54.933594 9.929688 L 56.453125 9.929688 C 57.003906 9.929688 57.464844 10.09375 57.835938 10.417969 C 58.214844 10.742188 58.402344 11.175781 58.402344 11.71875 C 58.402344 12.226562 58.222656 12.644531 57.863281 12.96875 C 57.507812 13.296875 57.042969 13.457031 56.472656 13.457031 L 54.765625 13.457031 L 54.765625 12.566406 L 56.332031 12.566406 C 56.566406 12.566406 56.761719 12.492188 56.917969 12.347656 C 57.078125 12.199219 57.15625 12.007812 57.15625 11.773438 C 57.15625 11.558594 57.078125 11.378906 56.925781 11.234375 C 56.773438 11.085938 56.585938 11.015625 56.363281 11.015625 L 55.492188 11.015625 L 55.492188 14.90625 C 55.492188 15.28125 55.492188 15.46875 55.492188 15.46875 C 55.492188 15.46875 55.285156 15.46875 54.871094 15.46875 Z M 57.730469 15.46875 C 57.480469 15.46875 57.359375 15.46875 57.359375 15.46875 C 57.359375 15.46875 57.3125 15.398438 57.21875 15.253906 L 55.75 12.984375 L 57.0625 12.941406 L 58.203125 14.609375 C 58.601562 15.183594 58.800781 15.46875 58.800781 15.46875 C 58.800781 15.46875 58.441406 15.46875 57.730469 15.46875 Z M 63.484375 15.597656 C 62.683594 15.597656 62.003906 15.328125 61.441406 14.792969 C 60.882812 14.253906 60.601562 13.554688 60.601562 12.695312 C 60.601562 11.835938 60.882812 11.136719 61.445312 10.605469 C 62.011719 10.070312 62.6875 9.804688 63.480469 9.804688 C 64.273438 9.804688 64.949219 10.074219 65.515625 10.617188 C 66.078125 11.152344 66.363281 11.847656 66.363281 12.695312 C 66.363281 13.539062 66.082031 14.234375 65.519531 14.78125 C 64.960938 15.324219 64.28125 15.597656 63.484375 15.597656 Z M 63.480469 14.394531 C 63.945312 14.394531 64.335938 14.234375 64.644531 13.914062 C 64.957031 13.59375 65.113281 13.1875 65.113281 12.695312 C 65.113281 12.199219 64.957031 11.796875 64.644531 11.480469 C 64.332031 11.164062 63.945312 11.007812 63.480469 11.007812 C 63.023438 11.007812 62.636719 11.164062 62.320312 11.480469 C 62.007812 11.796875 61.851562 12.203125 61.851562 12.695312 C 61.851562 13.1875 62.007812 13.59375 62.316406 13.914062 C 62.628906 14.234375 63.015625 14.394531 63.480469 14.394531 Z M 69.507812 15.46875 C 69.085938 15.46875 68.875 15.46875 68.875 15.46875 C 68.875 15.46875 68.875 15.277344 68.875 14.898438 L 68.875 10.5 C 68.875 10.121094 68.875 9.929688 68.875 9.929688 C 68.875 9.929688 69.085938 9.929688 69.507812 9.929688 C 69.925781 9.929688 70.136719 9.929688 70.136719 9.929688 C 70.136719 9.929688 70.136719 10.121094 70.136719 10.5 L 70.136719 14.898438 C 70.136719 15.277344 70.136719 15.46875 70.136719 15.46875 C 70.136719 15.46875 69.925781 15.46875 69.507812 15.46875 Z M 73.632812 15.46875 C 73.175781 15.46875 72.949219 15.46875 72.949219 15.46875 C 72.949219 15.46875 72.949219 15.238281 72.949219 14.78125 L 72.949219 10.617188 C 72.949219 10.160156 72.949219 9.929688 72.949219 9.929688 C 72.949219 9.929688 73.175781 9.929688 73.632812 9.929688 L 74.921875 9.929688 C 75.765625 9.929688 76.449219 10.183594 76.96875 10.691406 C 77.484375 11.199219 77.746094 11.867188 77.746094 12.695312 C 77.746094 13.53125 77.484375 14.203125 76.96875 14.710938 C 76.449219 15.214844 75.765625 15.46875 74.921875 15.46875 Z M 74.195312 14.363281 L 74.851562 14.363281 C 75.351562 14.367188 75.746094 14.226562 76.039062 13.933594 C 76.332031 13.640625 76.480469 13.230469 76.480469 12.707031 C 76.480469 12.1875 76.335938 11.789062 76.042969 11.5 C 75.75 11.214844 75.355469 11.070312 74.851562 11.070312 L 74.195312 11.070312 Z M 74.195312 14.363281 "/>
<path style=" stroke:none;fill-rule:nonzero;fill:rgb(12.156863%,55.686277%,23.921569%);fill-opacity:1;" d="M 42.316406 42.574219 L 55.394531 42.574219 L 42.316406 55.652344 Z M 42.316406 42.574219 "/>
<path style=" stroke:none;fill-rule:nonzero;fill:rgb(12.156863%,55.686277%,23.921569%);fill-opacity:1;" d="M 68.472656 68.730469 L 55.394531 68.730469 L 68.472656 55.652344 Z M 68.472656 68.730469 "/>
<path style=" stroke:none;fill-rule:nonzero;fill:rgb(20.392157%,65.882355%,32.549021%);fill-opacity:1;" d="M 68.472656 42.574219 L 68.472656 55.652344 L 55.394531 42.574219 Z M 68.472656 42.574219 "/>
<path style=" stroke:none;fill-rule:nonzero;fill:rgb(20.392157%,65.882355%,32.549021%);fill-opacity:1;" d="M 42.316406 68.730469 L 42.316406 55.652344 L 55.394531 68.730469 Z M 42.316406 68.730469 "/>
<path style=" stroke:none;fill-rule:nonzero;fill:rgb(20.392157%,65.882355%,32.549021%);fill-opacity:1;" d="M 55.394531 55.652344 L 42.316406 55.652344 L 55.394531 42.574219 Z M 55.394531 55.652344 "/>
<path style=" stroke:none;fill-rule:nonzero;fill:rgb(20.392157%,65.882355%,32.549021%);fill-opacity:1;" d="M 55.394531 42.574219 L 42.316406 42.574219 L 55.394531 29.5 Z M 55.394531 42.574219 "/>
<path style=" stroke:none;fill-rule:nonzero;fill:rgb(20.392157%,65.882355%,32.549021%);fill-opacity:1;" d="M 55.394531 68.730469 L 68.472656 68.730469 L 55.394531 81.808594 Z M 55.394531 68.730469 "/>
<path style=" stroke:none;fill-rule:nonzero;fill:rgb(20.392157%,65.882355%,32.549021%);fill-opacity:1;" d="M 55.394531 55.652344 L 68.472656 55.652344 L 55.394531 68.730469 Z M 55.394531 55.652344 "/>
<path style=" stroke:none;fill-rule:nonzero;fill:rgb(20.392157%,65.882355%,32.549021%);fill-opacity:1;" d="M 68.472656 55.652344 L 81.550781 55.652344 L 68.472656 68.730469 Z M 68.472656 55.652344 "/>
<path style=" stroke:none;fill-rule:nonzero;fill:rgb(20.392157%,65.882355%,32.549021%);fill-opacity:1;" d="M 42.316406 55.652344 L 29.242188 55.652344 L 42.316406 42.574219 Z M 42.316406 55.652344 "/>
<path style=" stroke:none;fill-rule:nonzero;fill:rgb(12.156863%,55.686277%,23.921569%);fill-opacity:1;" d="M 55.394531 55.652344 L 55.394531 42.574219 L 68.472656 55.652344 Z M 55.394531 55.652344 "/>
<path style=" stroke:none;fill-rule:nonzero;fill:rgb(12.156863%,55.686277%,23.921569%);fill-opacity:1;" d="M 55.394531 42.574219 L 55.394531 29.5 L 68.472656 42.574219 Z M 55.394531 42.574219 "/>
<path style=" stroke:none;fill-rule:nonzero;fill:rgb(12.156863%,55.686277%,23.921569%);fill-opacity:1;" d="M 55.394531 68.730469 L 55.394531 81.808594 L 42.316406 68.730469 Z M 55.394531 68.730469 "/>
<path style=" stroke:none;fill-rule:nonzero;fill:rgb(12.156863%,55.686277%,23.921569%);fill-opacity:1;" d="M 68.472656 55.652344 L 68.472656 42.574219 L 81.550781 55.652344 Z M 68.472656 55.652344 "/>
<path style=" stroke:none;fill-rule:nonzero;fill:rgb(12.156863%,55.686277%,23.921569%);fill-opacity:1;" d="M 42.316406 55.652344 L 42.316406 68.730469 L 29.242188 55.652344 Z M 42.316406 55.652344 "/>
<path style=" stroke:none;fill-rule:nonzero;fill:rgb(12.156863%,55.686277%,23.921569%);fill-opacity:1;" d="M 55.394531 55.652344 L 55.394531 68.730469 L 42.316406 55.652344 Z M 55.394531 55.652344 "/>
<path style=" stroke:none;fill-rule:nonzero;fill:rgb(90.980393%,96.078432%,91.37255%);fill-opacity:1;" d="M 73.5625 87.027344 C 73.210938 87.027344 72.90625 86.898438 72.648438 86.644531 C 72.398438 86.386719 72.273438 86.078125 72.273438 85.71875 L 72.273438 76.375 L 70.589844 77.585938 C 70.351562 77.757812 70.085938 77.820312 69.792969 77.769531 C 69.496094 77.71875 69.261719 77.570312 69.089844 77.328125 C 68.914062 77.082031 68.855469 76.8125 68.90625 76.519531 C 68.964844 76.214844 69.113281 75.976562 69.347656 75.796875 L 72.9375 73.234375 C 73.027344 73.171875 73.125 73.113281 73.226562 73.0625 C 73.332031 73.003906 73.46875 72.976562 73.640625 72.976562 C 73.980469 72.976562 74.265625 73.097656 74.496094 73.34375 C 74.734375 73.578125 74.855469 73.875 74.855469 74.226562 L 74.855469 85.71875 C 74.855469 86.078125 74.726562 86.386719 74.46875 86.644531 C 74.21875 86.898438 73.917969 87.027344 73.5625 87.027344 Z M 82.152344 87.125 C 80.664062 87.125 79.449219 86.679688 78.511719 85.785156 C 77.582031 84.894531 77.117188 83.761719 77.117188 82.390625 C 77.117188 81.453125 77.328125 80.578125 77.742188 79.761719 C 78.167969 78.945312 78.746094 78.0625 79.484375 77.105469 L 82.210938 73.59375 C 82.40625 73.335938 82.664062 73.179688 82.980469 73.128906 C 83.300781 73.078125 83.59375 73.144531 83.855469 73.324219 C 84.148438 73.535156 84.324219 73.808594 84.375 74.152344 C 84.425781 74.492188 84.335938 74.796875 84.105469 75.074219 L 82.382812 77.269531 C 82.121094 77.597656 81.582031 78.054688 80.765625 78.644531 C 79.957031 79.234375 79.40625 80.46875 79.109375 82.351562 L 77.714844 82.339844 C 77.914062 80.828125 78.527344 79.714844 79.554688 79 C 80.585938 78.289062 81.699219 77.933594 82.890625 77.933594 C 84.074219 77.933594 85.082031 78.34375 85.914062 79.164062 C 86.75 79.980469 87.164062 81.042969 87.164062 82.351562 C 87.164062 83.730469 86.695312 84.871094 85.75 85.777344 C 84.8125 86.675781 83.613281 87.125 82.152344 87.125 Z M 82.140625 84.871094 C 82.890625 84.871094 83.507812 84.640625 83.988281 84.179688 C 84.476562 83.71875 84.722656 83.125 84.722656 82.398438 C 84.722656 81.6875 84.476562 81.097656 83.988281 80.636719 C 83.507812 80.167969 82.898438 79.933594 82.160156 79.933594 C 81.417969 79.933594 80.796875 80.167969 80.304688 80.636719 C 79.816406 81.097656 79.570312 81.6875 79.570312 82.40625 C 79.570312 83.121094 79.8125 83.710938 80.292969 84.179688 C 80.78125 84.640625 81.398438 84.871094 82.140625 84.871094 Z M 82.140625 84.871094 "/>
<path style="fill:none;stroke-width:14.3349;stroke-linecap:butt;stroke-linejoin:miter;stroke:rgb(37.254903%,38.82353%,40.784314%);stroke-opacity:1;stroke-miterlimit:4;" d="M 268.086238 128.697896 L 431.916451 128.710752 C 437.573305 128.710752 442.163071 133.300518 442.163071 138.957373 L 442.163071 302.774729 C 442.163071 308.431583 437.573305 313.021349 431.916451 313.021349 L 268.086238 313.034206 C 262.429384 313.034206 257.839618 308.44444 257.839618 302.787585 L 257.839618 138.944516 C 257.839618 133.287662 262.429384 128.697896 268.086238 128.697896 Z M 268.086238 128.697896 " transform="matrix(0.151917,0.151917,-0.151917,0.151917,35.7776,-31.071411)"/>
<path style=" stroke:none;fill-rule:evenodd;fill:rgb(77.64706%,100%,0%);fill-opacity:1;" d="M 37.027344 68.410156 C 37.128906 68.285156 37.121094 68.101562 37.007812 67.988281 C 36.875 67.855469 36.652344 67.871094 36.535156 68.015625 C 28.660156 77.863281 24.53125 85.644531 26.625 87.738281 C 29.757812 90.871094 45.660156 80.046875 62.148438 63.5625 C 63.726562 61.984375 65.253906 60.410156 66.722656 58.851562 C 66.882812 58.679688 66.878906 58.417969 66.714844 58.253906 L 65.816406 57.351562 C 65.644531 57.183594 65.363281 57.1875 65.195312 57.363281 C 63.738281 58.910156 62.214844 60.480469 60.640625 62.054688 C 45.605469 77.089844 31.3125 87.171875 28.714844 84.574219 C 27.074219 82.933594 30.496094 76.625 37.027344 68.410156 Z M 37.027344 68.410156 "/>
<path style=" stroke:none;fill-rule:nonzero;fill:rgb(0%,0%,0%);fill-opacity:1;" d="M 74.609375 53.300781 C 74.953125 53.207031 75.304688 53.414062 75.398438 53.757812 C 75.488281 54.101562 75.285156 54.453125 74.941406 54.546875 Z M 74.941406 54.546875 L 69.0625 56.121094 L 68.726562 54.875 L 74.609375 53.300781 Z M 74.941406 54.546875 "/>
<path style=" stroke:none;fill-rule:nonzero;fill:rgb(0%,0%,0%);fill-opacity:1;" d="M 69.847656 49.453125 C 69.941406 49.109375 70.292969 48.902344 70.636719 48.996094 C 70.980469 49.089844 71.183594 49.441406 71.09375 49.785156 Z M 71.09375 49.785156 L 69.519531 55.664062 L 68.273438 55.332031 L 69.847656 49.453125 Z M 71.09375 49.785156 "/>
<path style=" stroke:none;fill-rule:nonzero;fill:rgb(0%,0%,0%);fill-opacity:1;" d="M 72.117188 52.203125 C 70.359375 50.449219 67.554688 50.40625 65.847656 52.113281 L 62.042969 55.921875 C 61.710938 56.25 61.710938 56.78125 62.042969 57.113281 C 62.371094 57.441406 62.90625 57.441406 63.234375 57.113281 L 64.257812 56.085938 C 64.917969 55.425781 65.984375 55.425781 66.644531 56.085938 L 68.234375 57.675781 C 68.890625 58.332031 68.890625 59.402344 68.234375 60.058594 L 67.207031 61.085938 C 66.878906 61.414062 66.878906 61.949219 67.207031 62.277344 C 67.535156 62.605469 68.070312 62.605469 68.398438 62.277344 L 72.207031 58.46875 C 73.910156 56.765625 73.871094 53.960938 72.117188 52.203125 Z M 72.117188 52.203125 "/>
<path style=" stroke:none;fill-rule:nonzero;fill:rgb(90.980393%,96.078432%,91.37255%);fill-opacity:1;" d="M 26.441406 25.136719 L 27.960938 26.65625 L 26.441406 28.175781 L 24.921875 26.65625 Z M 26.441406 25.136719 "/>
<path style=" stroke:none;fill-rule:nonzero;fill:rgb(90.980393%,96.078432%,91.37255%);fill-opacity:1;" d="M 23.21875 71.328125 L 24.738281 72.847656 L 23.21875 74.367188 L 21.699219 72.847656 Z M 23.21875 71.328125 "/>
<path style=" stroke:none;fill-rule:nonzero;fill:rgb(90.980393%,96.078432%,91.37255%);fill-opacity:1;" d="M 25.910156 64.238281 L 28.191406 66.515625 L 25.910156 68.796875 L 23.632812 66.515625 Z M 25.910156 64.238281 "/>
<path style=" stroke:none;fill-rule:nonzero;fill:rgb(90.980393%,96.078432%,91.37255%);fill-opacity:1;" d="M 26.441406 39.410156 L 27.960938 40.929688 L 26.441406 42.449219 L 24.921875 40.929688 Z M 26.441406 39.410156 "/>
<path style=" stroke:none;fill-rule:nonzero;fill:rgb(90.980393%,96.078432%,91.37255%);fill-opacity:1;" d="M 37.511719 29.433594 L 39.792969 31.710938 L 37.511719 33.992188 L 35.234375 31.710938 Z M 37.511719 29.433594 "/>
<path style=" stroke:none;fill-rule:nonzero;fill:rgb(90.980393%,96.078432%,91.37255%);fill-opacity:1;" d="M 31.199219 29.894531 L 32.71875 31.414062 L 31.199219 32.933594 L 29.679688 31.414062 Z M 31.199219 29.894531 "/>
<path style=" stroke:none;fill-rule:nonzero;fill:rgb(90.980393%,96.078432%,91.37255%);fill-opacity:1;" d="M 46.320312 82.714844 L 48.601562 84.992188 L 46.320312 87.273438 L 44.042969 84.992188 Z M 46.320312 82.714844 "/>
<path style=" stroke:none;fill-rule:nonzero;fill:rgb(90.980393%,96.078432%,91.37255%);fill-opacity:1;" d="M 48.785156 23.632812 L 50.304688 25.152344 L 48.785156 26.671875 L 47.265625 25.152344 Z M 48.785156 23.632812 "/>
<path style=" stroke:none;fill-rule:nonzero;fill:rgb(90.980393%,96.078432%,91.37255%);fill-opacity:1;" d="M 86.058594 26.65625 L 84.539062 28.175781 L 83.019531 26.65625 L 84.539062 25.136719 Z M 86.058594 26.65625 "/>
<path style=" stroke:none;fill-rule:nonzero;fill:rgb(90.980393%,96.078432%,91.37255%);fill-opacity:1;" d="M 83.40625 32.140625 L 81.125 34.421875 L 78.847656 32.140625 L 81.125 29.863281 Z M 83.40625 32.140625 "/>
<path style=" stroke:none;fill-rule:nonzero;fill:rgb(90.980393%,96.078432%,91.37255%);fill-opacity:1;" d="M 71.144531 26.011719 L 69.625 27.53125 L 68.105469 26.011719 L 69.625 24.492188 Z M 71.144531 26.011719 "/>
<path style=" stroke:none;fill-rule:nonzero;fill:rgb(90.980393%,96.078432%,91.37255%);fill-opacity:1;" d="M 72.648438 32.886719 L 71.128906 34.40625 L 69.609375 32.886719 L 71.128906 31.367188 Z M 72.648438 32.886719 "/>
<path style=" stroke:none;fill-rule:nonzero;fill:rgb(90.980393%,96.078432%,91.37255%);fill-opacity:1;" d="M 80.382812 68.765625 L 78.863281 70.285156 L 77.34375 68.765625 L 78.863281 67.246094 Z M 80.382812 68.765625 "/>
<path style=" stroke:none;fill-rule:nonzero;fill:rgb(90.980393%,96.078432%,91.37255%);fill-opacity:1;" d="M 66.003906 23.546875 L 63.722656 25.828125 L 61.445312 23.546875 L 63.722656 21.269531 Z M 66.003906 23.546875 "/>
<path style=" stroke:none;fill-rule:nonzero;fill:rgb(90.980393%,96.078432%,91.37255%);fill-opacity:1;" d="M 38.917969 75.855469 L 37.398438 77.375 L 35.878906 75.855469 L 37.398438 74.335938 Z M 38.917969 75.855469 "/>
<path style=" stroke:none;fill-rule:nonzero;fill:rgb(90.980393%,96.078432%,91.37255%);fill-opacity:1;" d="M 86.0625 40.929688 L 83.78125 43.207031 L 81.503906 40.929688 L 83.78125 38.648438 Z M 86.0625 40.929688 "/>
</g>
</svg>
